# xmcd
#
# Track frame offsets:
#	150
#	18932
#	35050
#	51982
#	73895
#	88767
#	113620
#	131884
#	152533
#	172184
#	193605
#	209804
#	231302
#	251540
#	270752
#
# Disc length: 3953 seconds
#
# Revision: 0
# Processed by: cddbd v1.5.2PL0 Copyright (c) Steve Scherf et al.
# Submitted via: dBpowerAMP V4.0
#
DISCID=db0f6f0f
DTITLE=Various Artist - The No.1 R&B Album [CD2]
DYEAR=1900
DGENRE=
TTITLE0=01.Can't Stop (Ashanti)
TTITLE1=02.Cop That Sh't (Timbaland and Missy Elliot
TTITLE2=03.Back Off (Sean Paul)
TTITLE3=04.I Think I'm In Love (Allure Feat. Joe Budden)
TTITLE4=05.Who Am I (Beenie Man)
TTITLE5=06.Do You Really Like It (DJ Pied Piper and the The Masters Of Ceremonies)
TTITLE6=07.Tear This Bitch Up (TQ Feat. Mike Jones)
TTITLE7=08.Straighten It Up (Rahsaan Patterson)
TTITLE8=09.Get On (Cooly's hot Box)
TTITLE9=10.I Specialize In Love (Full Flava feat. Beverlei Brown)
TTITLE10=11.Unknown Number (Busy Signal)
TTITLE11=12.Get Ready (Malik Yusef Feat. Carl Thomas, Twista, Juice and Marvo 11)
TTITLE12=13.We Gonna win (Miri Ben-Ari Feat. Styles P)
TTITLE13=14.Strictly a Vibe Thang (VRS Remix)(Hil St Soul)
TTITLE14=15.Addicted(Only child feat. Veba
EXTD=
EXTT0=
EXTT1=
EXTT2=
EXTT3=
EXTT4=
EXTT5=
EXTT6=
EXTT7=
EXTT8=
EXTT9=
EXTT10=
EXTT11=
EXTT12=
EXTT13=
EXTT14=
PLAYORDER=
